<svg width="192" height="200" viewBox="0 0 192 200" fill="none" xmlns="http://www.w3.org/2000/svg">
<path opacity="0.49" d="M41.3037 149.471C41.5574 108.599 8.47889 83.6893 2.11566 64.243C-7.44364 35.0415 17.2898 -3.48476 85.705 21.3611C154.12 46.2069 171.527 59.0779 177.363 103.826C182.034 139.635 155.264 171.169 133.9 183.734C100.474 203.386 41.0499 190.342 41.3037 149.471Z" fill="url(#paint0_linear_59_511)"/>
<path d="M34.314 122.722C32.6405 143.425 41.0595 162.652 51.5278 175.424C63.9138 164.503 72.7536 146.672 74.4271 125.957C76.1007 105.242 70.2353 86.2421 59.7637 73.4707C47.3746 84.4112 35.9747 102.02 34.314 122.722Z" fill="url(#paint1_linear_59_511)"/>
<path d="M42.0779 43.412C41.5896 61.1654 45.4185 77.0783 51.7657 87.4182C58.6718 77.4381 63.3711 61.7597 63.8593 44.0062C64.3476 26.2528 60.5284 10.3463 54.1812 0C47.2751 9.98009 42.5758 25.6585 42.0779 43.412Z" fill="url(#paint2_linear_59_511)"/>
<path d="M28.908 73.2364C27.8865 57.1372 25.8115 28.1124 24.5877 11.1973C14.9705 26.1626 10.1331 48.0147 12.7028 71.6817C15.2532 95.0789 24.4881 115.168 36.8773 127.749C33.9125 111.721 29.8395 87.8869 28.908 73.2364Z" fill="url(#paint3_linear_59_511)"/>
<path d="M50.1402 67.6087C47.5383 43.6045 37.8794 23.0436 24.9956 10.542C24.8543 10.754 24.7258 10.9821 24.5876 11.1844C25.8115 28.1124 27.8865 57.1372 28.908 73.2364C29.8395 87.8901 33.9125 111.724 36.8773 127.753C37.1985 128.074 37.5197 128.43 37.8409 128.752C47.7471 113.767 52.7484 91.613 50.1402 67.6087Z" fill="url(#paint4_linear_59_511)"/>
<path d="M52.0353 83.9908C49.2858 98.8534 51.3929 112.9 56.8535 122.723C65.4781 115.521 72.4581 103.129 75.2077 88.2758C77.9572 73.4229 75.8501 59.3666 70.3895 49.5439C61.7745 56.7455 54.7946 69.1283 52.0353 83.9908Z" fill="url(#paint5_linear_59_511)"/>
<path d="M33.4245 80.3979C34.5955 80.2705 35.3605 78.473 35.1331 76.3831C34.9057 74.2933 33.7721 72.7024 32.6011 72.8298C31.43 72.9572 30.6651 74.7547 30.8924 76.8446C31.1198 78.9345 32.2535 80.5253 33.4245 80.3979Z" fill="url(#paint6_linear_59_511)"/>
<path d="M40.0308 81.601C41.3477 79.9624 41.671 78.0359 40.7529 77.2979C39.8347 76.56 38.0228 77.2901 36.7059 78.9286C35.3889 80.5672 35.0656 82.4937 35.9837 83.2317C36.9019 83.9696 38.7138 83.2395 40.0308 81.601Z" fill="url(#paint7_linear_59_511)"/>
<path d="M42.1462 102.265C43.9533 100.017 44.3959 97.3728 43.1349 96.3593C41.8738 95.3457 39.3866 96.3467 37.5795 98.595C35.7724 100.843 35.3298 103.488 36.5909 104.501C37.8519 105.515 40.3392 104.514 42.1462 102.265Z" fill="url(#paint8_linear_59_511)"/>
<path d="M42.5709 111.863C43.4986 109.131 43.0087 106.495 41.4768 105.975C39.9448 105.455 37.9509 107.247 37.0232 109.978C36.0955 112.71 36.5854 115.346 38.1173 115.866C39.6493 116.386 41.6432 114.594 42.5709 111.863Z" fill="url(#paint9_linear_59_511)"/>
<path d="M8.68769 125.668C16.7855 141.687 28.8791 153.462 41.1142 158.788C23.3189 142.027 1.23554 79.9238 1.23554 79.9238C-1.72605 92.933 0.589901 109.652 8.68769 125.668Z" fill="url(#paint10_linear_59_511)"/>
<path d="M33.6621 113.041C25.5611 97.0252 13.4674 85.2495 1.2356 79.9238C1.2356 79.9238 23.319 142.03 41.1142 158.788C44.0758 145.779 41.7566 129.057 33.6621 113.041Z" fill="url(#paint11_linear_59_511)"/>
<path d="M33.6621 113.041C25.5611 97.0252 13.4674 85.2495 1.2356 79.9238C1.2356 79.9238 23.319 142.03 41.1142 158.788C44.0758 145.779 41.7566 129.057 33.6621 113.041Z" fill="url(#paint12_linear_59_511)"/>
<path d="M24.8349 128.789C25.639 128.363 25.6751 126.856 24.9156 125.423C24.1561 123.991 22.8886 123.175 22.0846 123.601C21.2805 124.027 21.2443 125.534 22.0038 126.967C22.7633 128.4 24.0308 129.215 24.8349 128.789Z" fill="url(#paint13_linear_59_511)"/>
<path d="M35.5541 129.52C36.3582 129.093 36.3943 127.586 35.6349 126.154C34.8754 124.721 33.6079 123.905 32.8038 124.332C31.9997 124.758 31.9636 126.265 32.7231 127.697C33.4826 129.13 34.7501 129.946 35.5541 129.52Z" fill="url(#paint14_linear_59_511)"/>
<path d="M29.921 127.769C30.397 126.219 30.0776 124.746 29.2076 124.479C28.3376 124.212 27.2465 125.252 26.7706 126.802C26.2946 128.352 26.6141 129.825 27.484 130.092C28.354 130.359 29.4451 129.319 29.921 127.769Z" fill="url(#paint15_linear_59_511)"/>
<path d="M31.7362 132.748C32.2064 131.191 31.8793 129.715 31.0057 129.451C30.132 129.187 29.0426 130.235 28.5724 131.792C28.1021 133.348 28.4292 134.824 29.3029 135.088C30.1765 135.352 31.266 134.304 31.7362 132.748Z" fill="url(#paint16_linear_59_511)"/>
<path d="M37.3366 141.971C37.9896 139.845 37.5525 137.824 36.3603 137.458C35.1681 137.092 33.6723 138.519 33.0193 140.646C32.3663 142.772 32.8034 144.793 33.9956 145.159C35.1878 145.525 36.6836 144.098 37.3366 141.971Z" fill="url(#paint17_linear_59_511)"/>
<path d="M38.3313 152.86C39.5768 152.796 40.4933 150.943 40.3784 148.721C40.2635 146.499 39.1607 144.751 37.9153 144.815C36.6698 144.879 35.7533 146.733 35.8682 148.954C35.9831 151.176 37.0858 152.925 38.3313 152.86Z" fill="url(#paint18_linear_59_511)"/>
<path d="M83.2799 86.541H71.0738C70.6299 86.541 70.2043 86.7174 69.8904 87.0312C69.5766 87.3451 69.4003 87.7707 69.4003 88.2146V95.7374C69.4003 96.1812 69.5766 96.6069 69.8904 96.9207C70.2043 97.2346 70.6299 97.4109 71.0738 97.4109H73.7399L76.2453 100.861H77.1704L80.6235 97.4109H83.2895C83.7334 97.4109 84.159 97.2346 84.4729 96.9207C84.7867 96.6069 84.9631 96.1812 84.9631 95.7374V88.2146C84.9631 87.994 84.9194 87.7756 84.8347 87.5719C84.75 87.3682 84.6259 87.1833 84.4695 87.0278C84.3131 86.8723 84.1274 86.7492 83.9233 86.6657C83.7191 86.5821 83.5005 86.5398 83.2799 86.541Z" fill="url(#paint19_linear_59_511)"/>
<path d="M82.3547 86.541H70.1486C69.7048 86.541 69.2791 86.7173 68.9653 87.0312C68.6514 87.345 68.4751 87.7707 68.4751 88.2145V95.7373C68.4751 96.1812 68.6514 96.6069 68.9653 96.9207C69.2791 97.2346 69.7048 97.4109 70.1486 97.4109H72.8147L76.2452 100.861L79.6854 97.4205H82.3515C82.7954 97.4205 83.221 97.2442 83.5349 96.9303C83.8487 96.6165 84.025 96.1908 84.025 95.747V88.2145C84.025 87.7712 83.8492 87.3461 83.536 87.0323C83.2229 86.7186 82.798 86.5419 82.3547 86.541Z" fill="url(#paint20_linear_59_511)"/>
<path opacity="0.49" d="M144.047 35.1726C145.03 38.555 141.416 41.3206 138.484 39.4511C131.555 35.0313 117.656 27.8521 106.924 25.1411C91.8659 21.3347 104.393 3.11872 116.317 2.01375C128.24 0.908776 142.296 29.3651 143.996 35.012L144.047 35.1726Z" fill="url(#paint21_linear_59_511)"/>
<path opacity="0.45" d="M162.758 85.7188H145.309V103.167H162.758V85.7188Z" fill="url(#paint22_linear_59_511)"/>
<path d="M140.096 100.54L142.756 99.7624C145.415 98.985 145.325 93.4666 145.325 93.4666V84.2285H162.758V93.473C162.758 93.473 162.864 98.9947 160.188 99.7688L157.544 100.54H140.096Z" fill="url(#paint23_linear_59_511)"/>
<path opacity="0.45" d="M191.056 106.698L173.743 104.532L171.577 121.846L188.89 124.011L191.056 106.698Z" fill="url(#paint24_linear_59_511)"/>
<path d="M166.728 118.586L169.464 118.146C172.201 117.706 172.779 112.216 172.779 112.216L173.926 103.059L191.239 105.224L190.093 114.381C190.093 114.381 189.515 119.871 186.778 120.311L184.054 120.754L166.728 118.586Z" fill="url(#paint25_linear_59_511)"/>
<path opacity="0.45" d="M163.67 55.7073L146.504 61.1162L151.913 78.2817L169.079 72.8728L163.67 55.7073Z" fill="url(#paint26_linear_59_511)"/>
<path d="M145.965 77.3063L148.342 75.7195C150.719 74.1327 148.904 68.7331 148.904 68.7331L146.042 59.6524L163.204 54.2432L166.066 63.3239C166.066 63.3239 167.881 68.7202 165.504 70.3102L163.127 71.897L145.965 77.3063Z" fill="url(#paint27_linear_59_511)"/>
<path d="M56.1148 121.419C56.1148 121.419 56.7573 114.77 54.4574 111.67C52.1575 108.571 49.1317 107.591 48.4154 106.852C47.699 106.113 39.9353 98.4203 38.3003 97.8036C37.6836 97.5723 35.4094 97.0552 36.5786 100.441C37.7479 103.826 43.8638 106.91 43.5618 107.941C43.2599 108.972 40.1634 109.833 39.0424 112.958C37.9213 116.084 37.4363 119.261 40.8058 120.195C44.1753 121.13 51.1649 126.494 51.1649 126.494L56.1148 121.419Z" fill="url(#paint28_linear_59_511)"/>
<path d="M51.226 124.005C51.226 124.005 47.8179 121.605 47.8179 120.25C47.8179 118.894 49.1445 112.354 49.1445 112.354C49.1445 112.354 47.2365 117.815 43.3627 120.359C43.0415 120.558 42.7652 120.732 42.4794 120.892C45.9099 122.572 50.6382 126.16 51.0236 126.453L51.1361 125.026L51.226 124.005Z" fill="url(#paint29_linear_59_511)"/>
<path d="M95.4859 106.621L78.7378 138L57.1459 116.46C57.1459 116.46 51.4251 120.35 50.4743 123.912L49.5106 127.474C49.5106 127.474 74.5074 152.108 77.999 154.238C81.4906 156.367 101.425 142.298 101.425 142.298L95.4859 106.621Z" fill="url(#paint30_linear_59_511)"/>
<path d="M125.272 102.04C125.272 102.04 141.333 107.732 145.187 111.734C149.042 115.737 142.907 154.758 142.92 162.396C142.932 170.034 143.989 197.498 143.989 197.498C143.989 197.498 118.973 202.403 105.932 198.478C92.7043 194.498 89.7781 193.338 89.7781 193.338C89.7781 193.338 89.338 144.193 89.5564 135.411C89.7749 126.629 92.3638 110.314 95.4732 106.604C98.5825 102.894 108.058 102.429 108.058 102.429L125.272 102.04Z" fill="url(#paint31_linear_59_511)"/>
<path d="M102.466 145.073C102.466 145.073 112.796 157.241 120.64 162.962C128.484 168.682 128.841 178.38 126.393 183.905C123.945 189.43 102.504 188.643 96.5201 190.4C94.1812 191.119 91.937 192.117 89.8357 193.371C90.2501 193.528 93.6421 194.775 105.941 198.478C118.979 202.403 143.999 197.498 143.999 197.498C143.999 197.498 142.939 170.035 142.939 162.396C142.939 159.952 143.562 154.292 144.291 147.598L102.466 145.073Z" fill="url(#paint32_linear_59_511)"/>
<path d="M108.003 102.162L104.239 102.901C104.239 102.901 103.876 105.602 106.992 108.323C110.107 111.043 114.1 110.626 118.292 108.589C122.484 106.553 125.272 102.04 125.272 102.04L122.593 101.433L108.003 102.162Z" fill="white"/>
<path d="M105.678 92.0862L108.071 102.468C108.071 102.468 109.677 104.395 114.042 104.35C118.408 104.305 122.596 101.459 122.596 101.459L122.471 90.8398L105.678 92.0862Z" fill="url(#paint33_linear_59_511)"/>
<path d="M98.984 54.5488C98.984 54.5488 98.3736 69.4692 98.3255 74.6825C98.2773 79.8958 104.75 81.0746 104.75 81.0746L113.949 70.9885L109.407 55.506L98.984 54.5488Z" fill="url(#paint34_linear_59_511)"/>
<path d="M99.4593 72.3345C99.9058 78.1966 100.497 85.2762 103.102 91.4178C105.707 97.5594 117.952 98.6129 121.915 93.5924C125.879 88.5718 127.119 80.6636 127.119 80.6636C127.119 80.6636 131.336 80.8563 132.345 77.6859C133.354 74.5155 132.987 69.8226 131.015 68.9425C129.043 68.0624 127.199 70.2659 127.199 70.2659C127.199 70.2659 127.768 64.1628 123.345 60.4625C118.922 56.7621 102.466 58.4452 101.582 59.2483C100.699 60.0513 99.0128 66.4724 99.4593 72.3345Z" fill="url(#paint35_linear_59_511)"/>
<path d="M124.614 78.0293C124.614 78.0293 126.001 70.4551 125.349 67.0631C124.697 63.6711 122.76 61.4611 118.829 60.1891C114.897 58.9171 103.732 60.5103 101.22 59.8358C98.7078 59.1613 97.2366 58.0049 97.9883 53.0357C98.7399 48.0665 105.697 40.9485 115.848 41.7451C125.998 42.5417 130.893 46.9841 134.282 49.9681C137.671 52.9522 135.821 61.3487 135.082 68.3833C134.343 75.4179 132.127 85.0221 130.126 88.4174C128.124 91.8126 123.528 91.1637 123.528 91.1637L127.026 80.0048C127.026 80.0048 128.725 80.7114 130.611 78.3794C132.496 76.0474 133.18 71.9873 132.008 70.06C130.836 68.1327 127.733 68.6724 126.795 71.2003C125.857 73.7283 124.614 78.0293 124.614 78.0293Z" fill="url(#paint36_linear_59_511)"/>
<path d="M105.003 74.3291C105.003 74.3291 103.86 81.8583 104.146 83.715C104.432 85.5716 109.231 84.094 109.231 84.094" stroke="#EB6057" stroke-linecap="round" stroke-linejoin="round"/>
<path d="M124.109 53.4955C118.79 51.5682 102.986 56.7076 100.661 54.5394C99.9444 53.8713 99.3758 52.2909 98.8972 50.3926C98.4488 51.2295 98.1376 52.1328 97.9753 53.0683C97.2237 58.0407 98.6884 59.2067 101.207 59.8684C103.725 60.5301 114.884 58.9497 118.816 60.2217C122.747 61.4937 124.684 63.7037 125.336 67.0957C125.988 70.4877 124.614 78.0555 124.614 78.0555C124.614 78.0555 129.429 55.4131 124.109 53.4955Z" fill="url(#paint37_linear_59_511)"/>
<path d="M127.678 73.3462C127.678 73.3462 129.075 72.3537 129.583 73.6257C130.09 74.8977 130.068 76.1344 128.462 76.9631C127.566 77.4256 126.984 76.5198 126.984 76.5198" stroke="#EB6057" stroke-linecap="round" stroke-linejoin="round"/>
<path d="M101.525 132.864C101.525 132.864 99.4977 129.256 97.5126 127.724C95.5275 126.192 91.4771 126.417 91.4771 126.417L93.1152 131.877L101.525 132.864Z" fill="url(#paint38_linear_59_511)"/>
<path d="M97.0342 149.365L93.3531 110.7C93.2911 110.167 93.0452 109.672 92.6577 109.3C92.2702 108.928 91.7653 108.703 91.2298 108.664L64.0038 107.443C63.5896 107.42 63.1814 107.55 62.8571 107.809L61.3506 108.821L62.3142 110.08L65.9182 147.967C65.9802 148.501 66.2261 148.996 66.6136 149.367C67.0011 149.739 67.506 149.964 68.0415 150.004L94.2171 151.176L94.821 151.954L96.2922 150.955L96.3468 150.916L96.4014 150.877C96.6276 150.701 96.8045 150.469 96.9153 150.204C97.0261 149.939 97.0671 149.65 97.0342 149.365Z" fill="#223762"/>
<path d="M93.6646 152.326L66.4386 151.105C65.9032 151.065 65.3983 150.84 65.0108 150.469C64.6233 150.097 64.3774 149.602 64.3154 149.069L60.6375 110.407C60.6048 110.165 60.6268 109.917 60.7017 109.684C60.7767 109.451 60.9028 109.237 61.0708 109.058C61.2388 108.88 61.4446 108.741 61.673 108.652C61.9014 108.563 62.1469 108.527 62.3913 108.544L89.6174 109.765C90.1528 109.805 90.6577 110.03 91.0452 110.401C91.4327 110.773 91.6786 111.268 91.7406 111.802L95.4185 150.463C95.4511 150.706 95.4292 150.953 95.3542 151.186C95.2793 151.42 95.1532 151.633 94.9852 151.812C94.8171 151.99 94.6114 152.129 94.383 152.218C94.1545 152.307 93.9091 152.344 93.6646 152.326Z" fill="url(#paint39_linear_59_511)"/>
<path d="M77.2827 122.704C77.1433 122.32 77.0632 121.917 77.045 121.509C76.5902 121.442 76.126 121.487 75.6927 121.64C74.0545 122.235 73.29 124.229 73.9839 126.099C74.6777 127.968 76.5536 128.99 78.2046 128.408C79.4894 127.943 80.2282 126.603 80.1479 125.145C79.4955 125.032 78.8854 124.745 78.3814 124.316C77.8774 123.887 77.4979 123.33 77.2827 122.704Z" fill="#D6E3FA"/>
<path d="M83.4886 145.609L73.5984 145.166L73.4121 143.203L83.3023 143.646L83.4886 145.609Z" fill="url(#paint40_linear_59_511)"/>
<path d="M84.8987 147.158L72.471 146.599L72.365 145.504L84.7959 146.06L84.8987 147.158Z" fill="url(#paint41_linear_59_511)"/>
<path d="M104.374 135.019C104.374 135.019 98.1294 130.146 95.4409 128.807C92.7523 127.468 85.0336 127.442 83.4821 128.271C81.9307 129.099 82.0463 133.892 82.5859 135.572C83.1256 137.252 89.068 139.982 92.6206 141.032C96.1732 142.083 103.33 144.209 103.33 144.209L104.374 135.019Z" fill="url(#paint42_linear_59_511)"/>
<path d="M128.706 124.329C128.706 124.329 126.942 136.156 125.134 137.252C123.325 138.347 113.207 137.47 113.207 137.47L128.07 152.291C128.07 152.291 138.381 152.047 138.744 151.799C139.107 151.552 140.099 135.311 140.099 135.311L128.706 124.329Z" fill="url(#paint43_linear_59_511)"/>
<path d="M130.543 114.088C130.543 114.088 133.974 109.215 139.36 109.691C140.372 109.781 141.259 109.9 142.027 110.035C143.303 110.257 144.466 110.905 145.327 111.872C146.189 112.84 146.697 114.07 146.771 115.363C147.339 125.196 148.656 150.697 147.384 156.122C147.335 156.336 147.281 156.545 147.221 156.749C145.264 163.394 137.366 166.215 131.439 162.627L101.342 144.398C101.342 144.398 99.4658 138.144 101.737 135.558L104.011 132.988C104.011 132.988 127.961 144.851 130.222 145.249C132.483 145.647 126.117 128.867 127.386 122.732C128.654 116.597 130.543 114.088 130.543 114.088Z" fill="url(#paint44_linear_59_511)"/>
<defs>
<linearGradient id="paint0_linear_59_511" x1="-264.117" y1="-153.164" x2="-286.396" y2="-173.68" gradientUnits="userSpaceOnUse">
<stop stop-color="#EAF1FC"/>
<stop offset="1" stop-color="#C0D4F4"/>
</linearGradient>
<linearGradient id="paint1_linear_59_511" x1="33.51" y1="125.933" x2="75.1047" y2="122.606" gradientUnits="userSpaceOnUse">
<stop stop-color="#223762"/>
<stop offset="1" stop-color="#041B48"/>
</linearGradient>
<linearGradient id="paint2_linear_59_511" x1="4624.72" y1="30303.7" x2="-3936.91" y2="34730.7" gradientUnits="userSpaceOnUse">
<stop stop-color="#223762"/>
<stop offset="1" stop-color="#041B48"/>
</linearGradient>
<linearGradient id="paint3_linear_59_511" x1="12.6893" y1="71.4379" x2="30.9293" y2="69.4532" gradientUnits="userSpaceOnUse">
<stop stop-color="#3769A5"/>
<stop offset="1" stop-color="#08448B"/>
</linearGradient>
<linearGradient id="paint4_linear_59_511" x1="41.7916" y1="11.1875" x2="24.9476" y2="165.922" gradientUnits="userSpaceOnUse">
<stop stop-color="#4C93F4"/>
<stop offset="1" stop-color="#0B63DA"/>
</linearGradient>
<linearGradient id="paint5_linear_59_511" x1="14941.2" y1="50183.5" x2="7555.58" y2="57562.9" gradientUnits="userSpaceOnUse">
<stop stop-color="#3769A5"/>
<stop offset="1" stop-color="#08448B"/>
</linearGradient>
<linearGradient id="paint6_linear_59_511" x1="389.738" y1="2554.57" x2="306.278" y2="2712.95" gradientUnits="userSpaceOnUse">
<stop stop-color="#4C93F4"/>
<stop offset="1" stop-color="#0B63DA"/>
</linearGradient>
<linearGradient id="paint7_linear_59_511" x1="5197.02" y1="-5977.43" x2="5105.36" y2="-5902.53" gradientUnits="userSpaceOnUse">
<stop stop-color="#4C93F4"/>
<stop offset="1" stop-color="#0B63DA"/>
</linearGradient>
<linearGradient id="paint8_linear_59_511" x1="7622.81" y1="-8001.98" x2="7496.9" y2="-7899.13" gradientUnits="userSpaceOnUse">
<stop stop-color="#4C93F4"/>
<stop offset="1" stop-color="#0B63DA"/>
</linearGradient>
<linearGradient id="paint9_linear_59_511" x1="4786.78" y1="-3672.31" x2="4703.71" y2="-3532.56" gradientUnits="userSpaceOnUse">
<stop stop-color="#4C93F4"/>
<stop offset="1" stop-color="#0B63DA"/>
</linearGradient>
<linearGradient id="paint10_linear_59_511" x1="-1641.89" y1="28540.9" x2="7724.2" y2="43627.8" gradientUnits="userSpaceOnUse">
<stop stop-color="#3769A5"/>
<stop offset="1" stop-color="#08448B"/>
</linearGradient>
<linearGradient id="paint11_linear_59_511" x1="-561.736" y1="27870.8" x2="8804.57" y2="42958.5" gradientUnits="userSpaceOnUse">
<stop stop-color="#4C93F4"/>
<stop offset="1" stop-color="#0B63DA"/>
</linearGradient>
<linearGradient id="paint12_linear_59_511" x1="-1153.74" y1="25298.7" x2="12271.3" y2="46924.8" gradientUnits="userSpaceOnUse">
<stop stop-color="#4C93F4"/>
<stop offset="1" stop-color="#0B63DA"/>
</linearGradient>
<linearGradient id="paint13_linear_59_511" x1="2009.76" y1="8412" x2="1998.62" y2="8518.01" gradientUnits="userSpaceOnUse">
<stop stop-color="#4C93F4"/>
<stop offset="1" stop-color="#0B63DA"/>
</linearGradient>
<linearGradient id="paint14_linear_59_511" x1="2150.85" y1="8455.33" x2="2139.69" y2="8561.29" gradientUnits="userSpaceOnUse">
<stop stop-color="#4C93F4"/>
<stop offset="1" stop-color="#0B63DA"/>
</linearGradient>
<linearGradient id="paint15_linear_59_511" x1="2161.94" y1="-1306.18" x2="2127.71" y2="-1244.53" gradientUnits="userSpaceOnUse">
<stop stop-color="#4C93F4"/>
<stop offset="1" stop-color="#0B63DA"/>
</linearGradient>
<linearGradient id="paint16_linear_59_511" x1="2198.65" y1="-1250.72" x2="2164.61" y2="-1188.74" gradientUnits="userSpaceOnUse">
<stop stop-color="#4C93F4"/>
<stop offset="1" stop-color="#0B63DA"/>
</linearGradient>
<linearGradient id="paint17_linear_59_511" x1="3306.89" y1="-1770.72" x2="3259.96" y2="-1686.17" gradientUnits="userSpaceOnUse">
<stop stop-color="#4C93F4"/>
<stop offset="1" stop-color="#0B63DA"/>
</linearGradient>
<linearGradient id="paint18_linear_59_511" x1="686.742" y1="3246.05" x2="611.447" y2="3371.37" gradientUnits="userSpaceOnUse">
<stop stop-color="#4C93F4"/>
<stop offset="1" stop-color="#0B63DA"/>
</linearGradient>
<linearGradient id="paint19_linear_59_511" x1="69.9495" y1="95.4001" x2="75.7121" y2="92.946" gradientUnits="userSpaceOnUse">
<stop stop-color="#FFC063"/>
<stop offset="0.95" stop-color="#E44D0B"/>
</linearGradient>
<linearGradient id="paint20_linear_59_511" x1="3846.95" y1="3792.47" x2="3619.95" y2="5001.09" gradientUnits="userSpaceOnUse">
<stop stop-color="#FFC063"/>
<stop offset="0.95" stop-color="#E44D0B"/>
</linearGradient>
<linearGradient id="paint21_linear_59_511" x1="149367" y1="40350.8" x2="147603" y2="43602" gradientUnits="userSpaceOnUse">
<stop stop-color="#EAF1FC"/>
<stop offset="1" stop-color="#C0D4F4"/>
</linearGradient>
<linearGradient id="paint22_linear_59_511" x1="8390.33" y1="5652.25" x2="8698.82" y2="4551.26" gradientUnits="userSpaceOnUse">
<stop stop-color="#223762"/>
<stop offset="1" stop-color="#041B48"/>
</linearGradient>
<linearGradient id="paint23_linear_59_511" x1="10765" y1="5209.7" x2="10983.3" y2="4127.8" gradientUnits="userSpaceOnUse">
<stop stop-color="#4C93F4"/>
<stop offset="1" stop-color="#0B63DA"/>
</linearGradient>
<linearGradient id="paint24_linear_59_511" x1="10587.2" y1="4092.05" x2="11030.1" y2="3037.89" gradientUnits="userSpaceOnUse">
<stop stop-color="#223762"/>
<stop offset="1" stop-color="#041B48"/>
</linearGradient>
<linearGradient id="paint25_linear_59_511" x1="14855.7" y1="4574.85" x2="15236.8" y2="3440.14" gradientUnits="userSpaceOnUse">
<stop stop-color="#4C93F4"/>
<stop offset="1" stop-color="#0B63DA"/>
</linearGradient>
<linearGradient id="paint26_linear_59_511" x1="5286.5" y1="11742.7" x2="5247.58" y2="10526.9" gradientUnits="userSpaceOnUse">
<stop stop-color="#223762"/>
<stop offset="1" stop-color="#041B48"/>
</linearGradient>
<linearGradient id="paint27_linear_59_511" x1="6161.99" y1="13965.6" x2="6938.72" y2="16430.6" gradientUnits="userSpaceOnUse">
<stop stop-color="#FFC063"/>
<stop offset="0.95" stop-color="#E44D0B"/>
</linearGradient>
<linearGradient id="paint28_linear_59_511" x1="42.0511" y1="110.727" x2="62.6056" y2="124.219" gradientUnits="userSpaceOnUse">
<stop stop-color="#F8A695"/>
<stop offset="1" stop-color="#E56045"/>
</linearGradient>
<linearGradient id="paint29_linear_59_511" x1="1245.74" y1="4350.29" x2="1702.62" y2="4406.48" gradientUnits="userSpaceOnUse">
<stop stop-color="#F8A695"/>
<stop offset="1" stop-color="#E56045"/>
</linearGradient>
<linearGradient id="paint30_linear_59_511" x1="8522.68" y1="15647.7" x2="9411.77" y2="15779.8" gradientUnits="userSpaceOnUse">
<stop stop-color="#FFC063"/>
<stop offset="0.95" stop-color="#E44D0B"/>
</linearGradient>
<linearGradient id="paint31_linear_59_511" x1="150.794" y1="94.0036" x2="72.4321" y2="240.222" gradientUnits="userSpaceOnUse">
<stop stop-color="#FFC063"/>
<stop offset="1" stop-color="#E58F0F"/>
</linearGradient>
<linearGradient id="paint32_linear_59_511" x1="11146.8" y1="23591.1" x2="15382.1" y2="24535.2" gradientUnits="userSpaceOnUse">
<stop stop-color="#FFC063"/>
<stop offset="0.95" stop-color="#E44D0B"/>
</linearGradient>
<linearGradient id="paint33_linear_59_511" x1="5641.51" y1="5711.55" x2="5624.17" y2="5364.72" gradientUnits="userSpaceOnUse">
<stop stop-color="#F8A695"/>
<stop offset="1" stop-color="#E56045"/>
</linearGradient>
<linearGradient id="paint34_linear_59_511" x1="5154.12" y1="9949.28" x2="5010.67" y2="10188.6" gradientUnits="userSpaceOnUse">
<stop stop-color="#223762"/>
<stop offset="1" stop-color="#041B48"/>
</linearGradient>
<linearGradient id="paint35_linear_59_511" x1="10929.7" y1="14848.4" x2="12098.7" y2="10497.2" gradientUnits="userSpaceOnUse">
<stop stop-color="#0B63DA"/>
<stop offset="1" stop-color="#FFCABF"/>
</linearGradient>
<linearGradient id="paint36_linear_59_511" x1="13130.3" y1="18077" x2="14264.6" y2="23580.1" gradientUnits="userSpaceOnUse">
<stop stop-color="#223762"/>
<stop offset="1" stop-color="#041B48"/>
</linearGradient>
<linearGradient id="paint37_linear_59_511" x1="10813.1" y1="6837.36" x2="9634.03" y2="5804.98" gradientUnits="userSpaceOnUse">
<stop stop-color="#223762"/>
<stop offset="1" stop-color="#041B48"/>
</linearGradient>
<linearGradient id="paint38_linear_59_511" x1="1646.64" y1="3927.24" x2="1697.72" y2="3902.97" gradientUnits="userSpaceOnUse">
<stop stop-color="#F8A695"/>
<stop offset="1" stop-color="#E56045"/>
</linearGradient>
<linearGradient id="paint39_linear_59_511" x1="2293.14" y1="17268.9" x2="4346.26" y2="11645.4" gradientUnits="userSpaceOnUse">
<stop stop-color="#4C93F4"/>
<stop offset="1" stop-color="#0B63DA"/>
</linearGradient>
<linearGradient id="paint40_linear_59_511" x1="1521.69" y1="1103.64" x2="1519.63" y2="1116.83" gradientUnits="userSpaceOnUse">
<stop stop-color="#4C93F4"/>
<stop offset="1" stop-color="#0B63DA"/>
</linearGradient>
<linearGradient id="paint41_linear_59_511" x1="1845.12" y1="846.463" x2="1844.16" y2="855.705" gradientUnits="userSpaceOnUse">
<stop stop-color="#4C93F4"/>
<stop offset="1" stop-color="#0B63DA"/>
</linearGradient>
<linearGradient id="paint42_linear_59_511" x1="7088.36" y1="6060.9" x2="7649.51" y2="6264.41" gradientUnits="userSpaceOnUse">
<stop stop-color="#F8A695"/>
<stop offset="1" stop-color="#E56045"/>
</linearGradient>
<linearGradient id="paint43_linear_59_511" x1="10266.3" y1="8713.61" x2="13104.3" y2="11552.2" gradientUnits="userSpaceOnUse">
<stop stop-color="#FFC063"/>
<stop offset="0.95" stop-color="#E44D0B"/>
</linearGradient>
<linearGradient id="paint44_linear_59_511" x1="24765.4" y1="11551" x2="11535.2" y2="35473.7" gradientUnits="userSpaceOnUse">
<stop stop-color="#FFC063"/>
<stop offset="1" stop-color="#E58F0F"/>
</linearGradient>
</defs>
</svg>
